ply
format ascii 1.0
comment Generated from Goxel 0.10.7
element vertex 424
property float x
property float y
property float z
property float red
property float green
property float blue
element face 394
property list uchar int vertex_indices
end_header
-3 -3 0 0.490196 0.490196 0.490196
-2 -3 0 0.490196 0.490196 0.490196
-2 -3 1 0.490196 0.490196 0.490196
-3 -3 1 0.490196 0.490196 0.490196
-3 -2 0 0.490196 0.490196 0.490196
-2 -2 0 0.490196 0.490196 0.490196
-3 -2 1 0.490196 0.490196 0.490196
-1 -3 0 0.490196 0.490196 0.490196
-1 -3 1 0.490196 0.490196 0.490196
-1 -2 0 0.490196 0.490196 0.490196
0 -3 0 0.490196 0.490196 0.490196
0 -3 1 0.490196 0.490196 0.490196
0 -2 0 0.490196 0.490196 0.490196
0 -2 1 0.490196 0.490196 0.490196
-3 -1 0 0.490196 0.490196 0.490196
-2 -1 0 0.490196 0.490196 0.490196
-3 -1 1 0.490196 0.490196 0.490196
-1 -1 0 0.490196 0.490196 0.490196
0 -1 0 0.490196 0.490196 0.490196
0 -1 1 0.490196 0.490196 0.490196
-2 0 0 0.490196 0.490196 0.490196
-3 0 0 0.490196 0.490196 0.490196
-3 0 1 0.490196 0.490196 0.490196
-2 0 1 0.490196 0.490196 0.490196
-1 0 0 0.490196 0.490196 0.490196
-1 0 1 0.490196 0.490196 0.490196
0 0 0 0.490196 0.490196 0.490196
0 0 1 0.490196 0.490196 0.490196
-2 -3 2 0.490196 0.490196 0.490196
-3 -3 2 0.490196 0.490196 0.490196
-3 -2 2 0.490196 0.490196 0.490196
-1 -3 2 0.490196 0.490196 0.490196
0 -3 2 0.490196 0.490196 0.490196
0 -2 2 0.490196 0.490196 0.490196
-3 -1 2 0.490196 0.490196 0.490196
0 -1 2 0.490196 0.490196 0.490196
-3 0 2 0.490196 0.490196 0.490196
-2 0 2 0.490196 0.490196 0.490196
-1 0 2 0.490196 0.490196 0.490196
0 0 2 0.490196 0.490196 0.490196
-2 -3 3 0.490196 0.490196 0.490196
-3 -3 3 0.490196 0.490196 0.490196
-3 -2 3 0.490196 0.490196 0.490196
-1 -3 3 0.490196 0.490196 0.490196
0 -3 3 0.490196 0.490196 0.490196
0 -2 3 0.490196 0.490196 0.490196
-3 -1 3 0.490196 0.490196 0.490196
0 -1 3 0.490196 0.490196 0.490196
-3 0 3 0.490196 0.490196 0.490196
-2 0 3 0.490196 0.490196 0.490196
-1 0 3 0.490196 0.490196 0.490196
0 0 3 0.490196 0.490196 0.490196
-2 -3 4 0.490196 0.490196 0.490196
-3 -3 4 0.490196 0.490196 0.490196
-3 -2 4 0.490196 0.490196 0.490196
-1 -3 4 0.490196 0.490196 0.490196
0 -3 4 0.490196 0.490196 0.490196
0 -2 4 0.490196 0.490196 0.490196
-3 -1 4 0.490196 0.490196 0.490196
0 -1 4 0.490196 0.490196 0.490196
-3 0 4 0.490196 0.490196 0.490196
-2 0 4 0.490196 0.490196 0.490196
-1 0 4 0.490196 0.490196 0.490196
0 0 4 0.490196 0.490196 0.490196
-2 -3 5 0.490196 0.490196 0.490196
-3 -3 5 0.490196 0.490196 0.490196
-3 -2 5 0.490196 0.490196 0.490196
-1 -3 5 0.490196 0.490196 0.490196
0 -3 5 0.490196 0.490196 0.490196
0 -2 5 0.490196 0.490196 0.490196
-3 -1 5 0.490196 0.490196 0.490196
0 -1 5 0.490196 0.490196 0.490196
-3 0 5 0.490196 0.490196 0.490196
-2 0 5 0.490196 0.490196 0.490196
-1 0 5 0.490196 0.490196 0.490196
0 0 5 0.490196 0.490196 0.490196
-2 -3 6 0.490196 0.490196 0.490196
-3 -3 6 0.490196 0.490196 0.490196
-3 -2 6 0.490196 0.490196 0.490196
-1 -3 6 0.490196 0.490196 0.490196
0 -3 6 0.490196 0.490196 0.490196
0 -2 6 0.490196 0.490196 0.490196
-3 -1 6 0.490196 0.490196 0.490196
0 -1 6 0.490196 0.490196 0.490196
-3 0 6 0.490196 0.490196 0.490196
-2 0 6 0.490196 0.490196 0.490196
-1 0 6 0.490196 0.490196 0.490196
0 0 6 0.490196 0.490196 0.490196
-2 -3 7 0.490196 0.490196 0.490196
-3 -3 7 0.490196 0.490196 0.490196
-3 -2 7 0.490196 0.490196 0.490196
-1 -3 7 0.490196 0.490196 0.490196
0 -3 7 0.490196 0.490196 0.490196
0 -2 7 0.490196 0.490196 0.490196
-3 -1 7 0.490196 0.490196 0.490196
0 -1 7 0.490196 0.490196 0.490196
-3 0 7 0.490196 0.490196 0.490196
-2 0 7 0.490196 0.490196 0.490196
-1 0 7 0.490196 0.490196 0.490196
0 0 7 0.490196 0.490196 0.490196
-3 -5 7 1.000000 0.933333 0.000000
-2 -5 7 1.000000 0.933333 0.000000
-2 -5 8 1.000000 0.933333 0.000000
-3 -5 8 1.000000 0.933333 0.000000
-3 -4 7 1.000000 0.933333 0.000000
-2 -4 7 1.000000 0.933333 0.000000
-3 -4 8 1.000000 0.933333 0.000000
-1 -5 7 1.000000 0.933333 0.000000
-1 -5 8 1.000000 0.933333 0.000000
-1 -4 7 1.000000 0.933333 0.000000
0 -5 7 1.000000 0.933333 0.000000
0 -5 8 1.000000 0.933333 0.000000
0 -4 7 1.000000 0.933333 0.000000
0 -4 8 1.000000 0.933333 0.000000
-3 -3 7 1.000000 0.933333 0.000000
-2 -3 7 1.000000 0.933333 0.000000
-3 -3 8 1.000000 0.933333 0.000000
-1 -3 7 1.000000 0.933333 0.000000
0 -3 7 1.000000 0.933333 0.000000
0 -3 8 1.000000 0.933333 0.000000
-3 -2 8 1.000000 0.933333 0.000000
-3 -2 7 1.000000 0.933333 0.000000
0 -2 7 1.000000 0.933333 0.000000
0 -2 8 1.000000 0.933333 0.000000
-3 -1 8 1.000000 0.933333 0.000000
-3 -1 7 1.000000 0.933333 0.000000
0 -1 7 1.000000 0.933333 0.000000
0 -1 8 1.000000 0.933333 0.000000
-3 0 8 1.000000 0.933333 0.000000
-3 0 7 1.000000 0.933333 0.000000
0 0 7 1.000000 0.933333 0.000000
0 0 8 1.000000 0.933333 0.000000
-3 -7 8 1.000000 0.933333 0.000000
-2 -7 8 1.000000 0.933333 0.000000
-2 -7 9 1.000000 0.933333 0.000000
-3 -7 9 1.000000 0.933333 0.000000
-3 -6 8 1.000000 0.933333 0.000000
-2 -6 8 1.000000 0.933333 0.000000
-3 -6 9 1.000000 0.933333 0.000000
-1 -7 8 1.000000 0.933333 0.000000
-1 -7 9 1.000000 0.933333 0.000000
-1 -6 8 1.000000 0.933333 0.000000
0 -7 8 1.000000 0.933333 0.000000
0 -7 9 1.000000 0.933333 0.000000
0 -6 8 1.000000 0.933333 0.000000
0 -6 9 1.000000 0.933333 0.000000
-3 -5 9 1.000000 0.933333 0.000000
0 -5 9 1.000000 0.933333 0.000000
-3 -4 9 1.000000 0.933333 0.000000
0 -4 9 1.000000 0.933333 0.000000
-3 -3 9 1.000000 0.933333 0.000000
0 -3 9 1.000000 0.933333 0.000000
-3 -2 9 1.000000 0.933333 0.000000
0 -2 9 1.000000 0.933333 0.000000
-3 -1 9 1.000000 0.933333 0.000000
0 -1 9 1.000000 0.933333 0.000000
-3 0 9 1.000000 0.933333 0.000000
0 0 9 1.000000 0.933333 0.000000
-2 -7 10 1.000000 0.933333 0.000000
-3 -7 10 1.000000 0.933333 0.000000
-3 -6 10 1.000000 0.933333 0.000000
-1 -7 10 1.000000 0.933333 0.000000
0 -7 10 1.000000 0.933333 0.000000
0 -6 10 1.000000 0.933333 0.000000
-3 -5 10 1.000000 0.933333 0.000000
0 -5 10 1.000000 0.933333 0.000000
-3 -4 10 1.000000 0.933333 0.000000
0 -4 10 1.000000 0.933333 0.000000
-2 -4 10 1.000000 0.933333 0.000000
-2 -3 10 1.000000 0.933333 0.000000
-3 -3 10 1.000000 0.933333 0.000000
-1 -4 10 1.000000 0.933333 0.000000
-1 -3 10 1.000000 0.933333 0.000000
0 -3 10 1.000000 0.933333 0.000000
-3 -3 9 0.000000 1.000000 0.964706
-3 -3 10 0.000000 1.000000 0.964706
-3 -2 10 0.000000 1.000000 0.964706
-3 -2 9 0.000000 1.000000 0.964706
0 -3 9 0.000000 1.000000 0.964706
0 -2 9 0.000000 1.000000 0.964706
0 -2 10 0.000000 1.000000 0.964706
0 -3 10 0.000000 1.000000 0.964706
-3 -1 10 0.000000 1.000000 0.964706
-3 -1 9 0.000000 1.000000 0.964706
0 -1 9 0.000000 1.000000 0.964706
0 -1 10 0.000000 1.000000 0.964706
-3 0 10 0.000000 1.000000 0.964706
-3 0 9 0.000000 1.000000 0.964706
0 0 9 0.000000 1.000000 0.964706
0 0 10 0.000000 1.000000 0.964706
-2 -7 11 1.000000 0.933333 0.000000
-3 -7 11 1.000000 0.933333 0.000000
-2 -6 11 1.000000 0.933333 0.000000
-3 -6 11 1.000000 0.933333 0.000000
-1 -7 11 1.000000 0.933333 0.000000
-1 -6 11 1.000000 0.933333 0.000000
0 -7 11 1.000000 0.933333 0.000000
0 -6 11 1.000000 0.933333 0.000000
-2 -5 11 1.000000 0.933333 0.000000
-3 -5 11 1.000000 0.933333 0.000000
-1 -5 11 1.000000 0.933333 0.000000
0 -5 11 1.000000 0.933333 0.000000
-3 -4 11 1.000000 0.933333 0.000000
-2 -4 11 1.000000 0.933333 0.000000
-1 -4 11 1.000000 0.933333 0.000000
0 -4 11 1.000000 0.933333 0.000000
-2 -3 10 0.000000 1.000000 0.964706
-2 -3 11 0.000000 1.000000 0.964706
-3 -3 11 0.000000 1.000000 0.964706
-3 -2 11 0.000000 1.000000 0.964706
-1 -3 10 0.000000 1.000000 0.964706
-1 -3 11 0.000000 1.000000 0.964706
0 -3 11 0.000000 1.000000 0.964706
0 -2 11 0.000000 1.000000 0.964706
-3 -1 11 0.000000 1.000000 0.964706
0 -1 11 0.000000 1.000000 0.964706
-2 0 10 0.000000 1.000000 0.964706
-3 0 11 0.000000 1.000000 0.964706
-2 0 11 0.000000 1.000000 0.964706
-1 0 10 0.000000 1.000000 0.964706
-1 0 11 0.000000 1.000000 0.964706
0 0 11 0.000000 1.000000 0.964706
-2 -3 12 0.000000 1.000000 0.964706
-3 -3 12 0.000000 1.000000 0.964706
-3 -2 12 0.000000 1.000000 0.964706
-1 -3 12 0.000000 1.000000 0.964706
0 -3 12 0.000000 1.000000 0.964706
0 -2 12 0.000000 1.000000 0.964706
-3 -1 12 0.000000 1.000000 0.964706
0 -1 12 0.000000 1.000000 0.964706
-3 0 12 0.000000 1.000000 0.964706
-2 0 12 0.000000 1.000000 0.964706
-1 0 12 0.000000 1.000000 0.964706
0 0 12 0.000000 1.000000 0.964706
-2 -3 13 0.000000 1.000000 0.964706
-3 -3 13 0.000000 1.000000 0.964706
-3 -2 13 0.000000 1.000000 0.964706
-1 -3 13 0.000000 1.000000 0.964706
0 -3 13 0.000000 1.000000 0.964706
0 -2 13 0.000000 1.000000 0.964706
-3 -1 13 0.000000 1.000000 0.964706
0 -1 13 0.000000 1.000000 0.964706
-3 0 13 0.000000 1.000000 0.964706
-2 0 13 0.000000 1.000000 0.964706
-1 0 13 0.000000 1.000000 0.964706
0 0 13 0.000000 1.000000 0.964706
-2 -3 14 0.000000 1.000000 0.964706
-3 -3 14 0.000000 1.000000 0.964706
-3 -2 14 0.000000 1.000000 0.964706
-1 -3 14 0.000000 1.000000 0.964706
0 -3 14 0.000000 1.000000 0.964706
0 -2 14 0.000000 1.000000 0.964706
-3 -1 14 0.000000 1.000000 0.964706
0 -1 14 0.000000 1.000000 0.964706
-3 0 14 0.000000 1.000000 0.964706
-2 0 14 0.000000 1.000000 0.964706
-1 0 14 0.000000 1.000000 0.964706
0 0 14 0.000000 1.000000 0.964706
-2 -3 15 0.000000 1.000000 0.964706
-3 -3 15 0.000000 1.000000 0.964706
-3 -2 15 0.000000 1.000000 0.964706
-1 -3 15 0.000000 1.000000 0.964706
0 -3 15 0.000000 1.000000 0.964706
0 -2 15 0.000000 1.000000 0.964706
-3 -1 15 0.000000 1.000000 0.964706
0 -1 15 0.000000 1.000000 0.964706
-3 0 15 0.000000 1.000000 0.964706
-2 0 15 0.000000 1.000000 0.964706
-1 0 15 0.000000 1.000000 0.964706
0 0 15 0.000000 1.000000 0.964706
-2 -3 16 0.000000 1.000000 0.964706
-3 -3 16 0.000000 1.000000 0.964706
-3 -2 16 0.000000 1.000000 0.964706
-1 -3 16 0.000000 1.000000 0.964706
0 -3 16 0.000000 1.000000 0.964706
0 -2 16 0.000000 1.000000 0.964706
-3 -1 16 0.000000 1.000000 0.964706
0 -1 16 0.000000 1.000000 0.964706
-3 0 16 0.000000 1.000000 0.964706
-2 0 16 0.000000 1.000000 0.964706
-1 0 16 0.000000 1.000000 0.964706
0 0 16 0.000000 1.000000 0.964706
-3 1 7 1.000000 0.933333 0.000000
-2 1 7 1.000000 0.933333 0.000000
-2 0 7 1.000000 0.933333 0.000000
-3 1 8 1.000000 0.933333 0.000000
-1 1 7 1.000000 0.933333 0.000000
-1 0 7 1.000000 0.933333 0.000000
0 1 7 1.000000 0.933333 0.000000
0 1 8 1.000000 0.933333 0.000000
-2 2 7 1.000000 0.933333 0.000000
-3 2 7 1.000000 0.933333 0.000000
-3 2 8 1.000000 0.933333 0.000000
-2 2 8 1.000000 0.933333 0.000000
-1 2 7 1.000000 0.933333 0.000000
-1 2 8 1.000000 0.933333 0.000000
0 2 7 1.000000 0.933333 0.000000
0 2 8 1.000000 0.933333 0.000000
-3 1 9 1.000000 0.933333 0.000000
0 1 9 1.000000 0.933333 0.000000
-3 2 9 1.000000 0.933333 0.000000
0 2 9 1.000000 0.933333 0.000000
-3 3 8 1.000000 0.933333 0.000000
-2 3 8 1.000000 0.933333 0.000000
-3 3 9 1.000000 0.933333 0.000000
-1 3 8 1.000000 0.933333 0.000000
0 3 8 1.000000 0.933333 0.000000
0 3 9 1.000000 0.933333 0.000000
-2 4 8 1.000000 0.933333 0.000000
-3 4 8 1.000000 0.933333 0.000000
-3 4 9 1.000000 0.933333 0.000000
-2 4 9 1.000000 0.933333 0.000000
-1 4 8 1.000000 0.933333 0.000000
-1 4 9 1.000000 0.933333 0.000000
0 4 8 1.000000 0.933333 0.000000
0 4 9 1.000000 0.933333 0.000000
-2 0 10 1.000000 0.933333 0.000000
-2 1 10 1.000000 0.933333 0.000000
-3 1 10 1.000000 0.933333 0.000000
-3 0 10 1.000000 0.933333 0.000000
-1 0 10 1.000000 0.933333 0.000000
-1 1 10 1.000000 0.933333 0.000000
0 0 10 1.000000 0.933333 0.000000
0 1 10 1.000000 0.933333 0.000000
-3 2 10 1.000000 0.933333 0.000000
0 2 10 1.000000 0.933333 0.000000
-3 3 10 1.000000 0.933333 0.000000
0 3 10 1.000000 0.933333 0.000000
-3 4 10 1.000000 0.933333 0.000000
-2 4 10 1.000000 0.933333 0.000000
-1 4 10 1.000000 0.933333 0.000000
0 4 10 1.000000 0.933333 0.000000
-2 1 11 1.000000 0.933333 0.000000
-3 1 11 1.000000 0.933333 0.000000
-2 2 11 1.000000 0.933333 0.000000
-3 2 11 1.000000 0.933333 0.000000
-1 1 11 1.000000 0.933333 0.000000
-1 2 11 1.000000 0.933333 0.000000
0 1 11 1.000000 0.933333 0.000000
0 2 11 1.000000 0.933333 0.000000
-2 3 11 1.000000 0.933333 0.000000
-3 3 11 1.000000 0.933333 0.000000
-1 3 11 1.000000 0.933333 0.000000
0 3 11 1.000000 0.933333 0.000000
-3 4 11 1.000000 0.933333 0.000000
-2 4 11 1.000000 0.933333 0.000000
-1 4 11 1.000000 0.933333 0.000000
0 4 11 1.000000 0.933333 0.000000
-2 -3 17 0.000000 1.000000 0.964706
-3 -3 17 0.000000 1.000000 0.964706
-3 -2 17 0.000000 1.000000 0.964706
-1 -3 17 0.000000 1.000000 0.964706
0 -3 17 0.000000 1.000000 0.964706
0 -2 17 0.000000 1.000000 0.964706
-3 -1 17 0.000000 1.000000 0.964706
0 -1 17 0.000000 1.000000 0.964706
-3 0 17 0.000000 1.000000 0.964706
-2 0 17 0.000000 1.000000 0.964706
-1 0 17 0.000000 1.000000 0.964706
0 0 17 0.000000 1.000000 0.964706
-2 -3 18 0.000000 1.000000 0.964706
-3 -3 18 0.000000 1.000000 0.964706
-3 -2 18 0.000000 1.000000 0.964706
-1 -3 18 0.000000 1.000000 0.964706
0 -3 18 0.000000 1.000000 0.964706
0 -2 18 0.000000 1.000000 0.964706
-3 -1 18 0.000000 1.000000 0.964706
0 -1 18 0.000000 1.000000 0.964706
-3 0 18 0.000000 1.000000 0.964706
-2 0 18 0.000000 1.000000 0.964706
-1 0 18 0.000000 1.000000 0.964706
0 0 18 0.000000 1.000000 0.964706
-2 -3 19 0.000000 1.000000 0.964706
-3 -3 19 0.000000 1.000000 0.964706
-3 -2 19 0.000000 1.000000 0.964706
-1 -3 19 0.000000 1.000000 0.964706
0 -3 19 0.000000 1.000000 0.964706
0 -2 19 0.000000 1.000000 0.964706
-3 -1 19 0.000000 1.000000 0.964706
0 -1 19 0.000000 1.000000 0.964706
-3 0 19 0.000000 1.000000 0.964706
-2 0 19 0.000000 1.000000 0.964706
-1 0 19 0.000000 1.000000 0.964706
0 0 19 0.000000 1.000000 0.964706
-2 -3 20 0.000000 1.000000 0.964706
-3 -3 20 0.000000 1.000000 0.964706
-3 -2 20 0.000000 1.000000 0.964706
-1 -3 20 0.000000 1.000000 0.964706
0 -3 20 0.000000 1.000000 0.964706
0 -2 20 0.000000 1.000000 0.964706
-3 -1 20 0.000000 1.000000 0.964706
0 -1 20 0.000000 1.000000 0.964706
-3 0 20 0.000000 1.000000 0.964706
-2 0 20 0.000000 1.000000 0.964706
-1 0 20 0.000000 1.000000 0.964706
0 0 20 0.000000 1.000000 0.964706
-2 -3 21 0.000000 1.000000 0.964706
-3 -3 21 0.000000 1.000000 0.964706
-3 -2 21 0.000000 1.000000 0.964706
-1 -3 21 0.000000 1.000000 0.964706
0 -3 21 0.000000 1.000000 0.964706
0 -2 21 0.000000 1.000000 0.964706
-3 -1 21 0.000000 1.000000 0.964706
0 -1 21 0.000000 1.000000 0.964706
-3 0 21 0.000000 1.000000 0.964706
-2 0 21 0.000000 1.000000 0.964706
-1 0 21 0.000000 1.000000 0.964706
0 0 21 0.000000 1.000000 0.964706
-2 -3 22 0.000000 1.000000 0.964706
-3 -3 22 0.000000 1.000000 0.964706
-2 -2 22 0.000000 1.000000 0.964706
-3 -2 22 0.000000 1.000000 0.964706
-1 -3 22 0.000000 1.000000 0.964706
-1 -2 22 0.000000 1.000000 0.964706
0 -3 22 0.000000 1.000000 0.964706
0 -2 22 0.000000 1.000000 0.964706
-2 -1 22 0.000000 1.000000 0.964706
-3 -1 22 0.000000 1.000000 0.964706
-1 -1 22 0.000000 1.000000 0.964706
0 -1 22 0.000000 1.000000 0.964706
-3 0 22 0.000000 1.000000 0.964706
-2 0 22 0.000000 1.000000 0.964706
-1 0 22 0.000000 1.000000 0.964706
0 0 22 0.000000 1.000000 0.964706
4 0 1 2 3
4 0 4 5 1
4 0 3 6 4
4 1 7 8 2
4 1 5 9 7
4 7 10 11 8
4 7 9 12 10
4 10 12 13 11
4 4 14 15 5
4 4 6 16 14
4 5 15 17 9
4 9 17 18 12
4 12 18 19 13
4 20 21 22 23
4 14 21 20 15
4 14 16 22 21
4 24 20 23 25
4 15 20 24 17
4 26 24 25 27
4 17 24 26 18
4 18 26 27 19
4 3 2 28 29
4 3 29 30 6
4 2 8 31 28
4 8 11 32 31
4 11 13 33 32
4 6 30 34 16
4 13 19 35 33
4 23 22 36 37
4 16 34 36 22
4 25 23 37 38
4 27 25 38 39
4 19 27 39 35
4 29 28 40 41
4 29 41 42 30
4 28 31 43 40
4 31 32 44 43
4 32 33 45 44
4 30 42 46 34
4 33 35 47 45
4 37 36 48 49
4 34 46 48 36
4 38 37 49 50
4 39 38 50 51
4 35 39 51 47
4 41 40 52 53
4 41 53 54 42
4 40 43 55 52
4 43 44 56 55
4 44 45 57 56
4 42 54 58 46
4 45 47 59 57
4 49 48 60 61
4 46 58 60 48
4 50 49 61 62
4 51 50 62 63
4 47 51 63 59
4 53 52 64 65
4 53 65 66 54
4 52 55 67 64
4 55 56 68 67
4 56 57 69 68
4 54 66 70 58
4 57 59 71 69
4 61 60 72 73
4 58 70 72 60
4 62 61 73 74
4 63 62 74 75
4 59 63 75 71
4 65 64 76 77
4 65 77 78 66
4 64 67 79 76
4 67 68 80 79
4 68 69 81 80
4 66 78 82 70
4 69 71 83 81
4 73 72 84 85
4 70 82 84 72
4 74 73 85 86
4 75 74 86 87
4 71 75 87 83
4 77 76 88 89
4 77 89 90 78
4 76 79 91 88
4 79 80 92 91
4 80 81 93 92
4 78 90 94 82
4 81 83 95 93
4 85 84 96 97
4 82 94 96 84
4 86 85 97 98
4 87 86 98 99
4 83 87 99 95
4 100 101 102 103
4 100 104 105 101
4 100 103 106 104
4 101 107 108 102
4 101 105 109 107
4 107 110 111 108
4 107 109 112 110
4 110 112 113 111
4 104 114 115 105
4 104 106 116 114
4 105 115 117 109
4 109 117 118 112
4 112 118 119 113
4 114 116 120 121
4 118 122 123 119
4 121 120 124 125
4 122 126 127 123
4 125 124 128 129
4 126 130 131 127
4 132 133 134 135
4 132 136 137 133
4 132 135 138 136
4 133 139 140 134
4 133 137 141 139
4 139 142 143 140
4 139 141 144 142
4 142 144 145 143
4 136 103 102 137
4 136 138 146 103
4 137 102 108 141
4 141 108 111 144
4 144 111 147 145
4 103 146 148 106
4 111 113 149 147
4 106 148 150 116
4 113 119 151 149
4 116 150 152 120
4 119 123 153 151
4 120 152 154 124
4 123 127 155 153
4 124 154 156 128
4 127 131 157 155
4 135 134 158 159
4 135 159 160 138
4 134 140 161 158
4 140 143 162 161
4 143 145 163 162
4 138 160 164 146
4 145 147 165 163
4 146 164 166 148
4 147 149 167 165
4 168 169 170 166
4 148 166 170 150
4 171 172 169 168
4 167 173 172 171
4 149 151 173 167
4 174 175 176 177
4 178 179 180 181
4 177 176 182 183
4 179 184 185 180
4 183 182 186 187
4 184 188 189 185
4 159 158 190 191
4 190 192 193 191
4 159 191 193 160
4 158 161 194 190
4 194 195 192 190
4 161 162 196 194
4 196 197 195 194
4 162 163 197 196
4 192 198 199 193
4 160 193 199 164
4 195 200 198 192
4 197 201 200 195
4 163 165 201 197
4 168 166 202 203
4 198 203 202 199
4 164 199 202 166
4 171 168 203 204
4 200 204 203 198
4 167 171 204 205
4 201 205 204 200
4 165 167 205 201
4 175 206 207 208
4 175 208 209 176
4 206 210 211 207
4 210 181 212 211
4 181 180 213 212
4 176 209 214 182
4 180 185 215 213
4 216 186 217 218
4 182 214 217 186
4 219 216 218 220
4 189 219 220 221
4 185 189 221 215
4 208 207 222 223
4 208 223 224 209
4 207 211 225 222
4 211 212 226 225
4 212 213 227 226
4 209 224 228 214
4 213 215 229 227
4 218 217 230 231
4 214 228 230 217
4 220 218 231 232
4 221 220 232 233
4 215 221 233 229
4 223 222 234 235
4 223 235 236 224
4 222 225 237 234
4 225 226 238 237
4 226 227 239 238
4 224 236 240 228
4 227 229 241 239
4 231 230 242 243
4 228 240 242 230
4 232 231 243 244
4 233 232 244 245
4 229 233 245 241
4 235 234 246 247
4 235 247 248 236
4 234 237 249 246
4 237 238 250 249
4 238 239 251 250
4 236 248 252 240
4 239 241 253 251
4 243 242 254 255
4 240 252 254 242
4 244 243 255 256
4 245 244 256 257
4 241 245 257 253
4 247 246 258 259
4 247 259 260 248
4 246 249 261 258
4 249 250 262 261
4 250 251 263 262
4 248 260 264 252
4 251 253 265 263
4 255 254 266 267
4 252 264 266 254
4 256 255 267 268
4 257 256 268 269
4 253 257 269 265
4 259 258 270 271
4 259 271 272 260
4 258 261 273 270
4 261 262 274 273
4 262 263 275 274
4 260 272 276 264
4 263 265 277 275
4 267 266 278 279
4 264 276 278 266
4 268 267 279 280
4 269 268 280 281
4 265 269 281 277
4 129 282 283 284
4 129 128 285 282
4 284 283 286 287
4 287 286 288 130
4 130 288 289 131
4 290 291 292 293
4 282 291 290 283
4 282 285 292 291
4 294 290 293 295
4 283 290 294 286
4 296 294 295 297
4 286 294 296 288
4 288 296 297 289
4 128 156 298 285
4 131 289 299 157
4 285 298 300 292
4 289 297 301 299
4 292 302 303 293
4 292 300 304 302
4 293 303 305 295
4 295 305 306 297
4 297 306 307 301
4 308 309 310 311
4 302 309 308 303
4 302 304 310 309
4 312 308 311 313
4 303 308 312 305
4 314 312 313 315
4 305 312 314 306
4 306 314 315 307
4 316 317 318 319
4 156 319 318 298
4 320 321 317 316
4 322 323 321 320
4 157 299 323 322
4 298 318 324 300
4 299 301 325 323
4 300 324 326 304
4 301 307 327 325
4 311 310 328 329
4 304 326 328 310
4 313 311 329 330
4 315 313 330 331
4 307 315 331 327
4 318 317 332 333
4 332 334 335 333
4 318 333 335 324
4 317 321 336 332
4 336 337 334 332
4 321 323 338 336
4 338 339 337 336
4 323 325 339 338
4 334 340 341 335
4 324 335 341 326
4 337 342 340 334
4 339 343 342 337
4 325 327 343 339
4 329 328 344 345
4 340 345 344 341
4 326 341 344 328
4 330 329 345 346
4 342 346 345 340
4 331 330 346 347
4 343 347 346 342
4 327 331 347 343
4 271 270 348 349
4 271 349 350 272
4 270 273 351 348
4 273 274 352 351
4 274 275 353 352
4 272 350 354 276
4 275 277 355 353
4 279 278 356 357
4 276 354 356 278
4 280 279 357 358
4 281 280 358 359
4 277 281 359 355
4 349 348 360 361
4 349 361 362 350
4 348 351 363 360
4 351 352 364 363
4 352 353 365 364
4 350 362 366 354
4 353 355 367 365
4 357 356 368 369
4 354 366 368 356
4 358 357 369 370
4 359 358 370 371
4 355 359 371 367
4 361 360 372 373
4 361 373 374 362
4 360 363 375 372
4 363 364 376 375
4 364 365 377 376
4 362 374 378 366
4 365 367 379 377
4 369 368 380 381
4 366 378 380 368
4 370 369 381 382
4 371 370 382 383
4 367 371 383 379
4 373 372 384 385
4 373 385 386 374
4 372 375 387 384
4 375 376 388 387
4 376 377 389 388
4 374 386 390 378
4 377 379 391 389
4 381 380 392 393
4 378 390 392 380
4 382 381 393 394
4 383 382 394 395
4 379 383 395 391
4 385 384 396 397
4 385 397 398 386
4 384 387 399 396
4 387 388 400 399
4 388 389 401 400
4 386 398 402 390
4 389 391 403 401
4 393 392 404 405
4 390 402 404 392
4 394 393 405 406
4 395 394 406 407
4 391 395 407 403
4 397 396 408 409
4 408 410 411 409
4 397 409 411 398
4 396 399 412 408
4 412 413 410 408
4 399 400 414 412
4 414 415 413 412
4 400 401 415 414
4 410 416 417 411
4 398 411 417 402
4 413 418 416 410
4 415 419 418 413
4 401 403 419 415
4 405 404 420 421
4 416 421 420 417
4 402 417 420 404
4 406 405 421 422
4 418 422 421 416
4 407 406 422 423
4 419 423 422 418
4 403 407 423 419
